<svg width="32" height="22" viewBox="0 0 32 22" fill="none" xmlns="http://www.w3.org/2000/svg">
<path d="M32 22H0V0H32V22ZM11.0293 6C10.2461 6.00001 9.53956 6.12993 8.90918 6.38867C8.28841 6.64743 7.76282 7.00398 7.33301 7.45898C6.90317 7.91411 6.57301 8.44967 6.34375 9.06543C6.11449 9.6723 6 10.3329 6 11.0469C6 11.7428 6.11458 12.3942 6.34375 13.001C6.57301 13.5989 6.90314 14.1212 7.33301 14.5674C7.76285 15.0136 8.28831 15.3662 8.90918 15.625C9.53954 15.8748 10.2462 16 11.0293 16C11.5259 16 12.0178 15.9061 12.5049 15.7188C12.9921 15.5224 13.4367 15.1831 13.8379 14.7012L14.0674 15.7861H15.5V10.6182H11.2012V12.1846H13.4648C13.398 12.8539 13.1598 13.3676 12.749 13.7246C12.3478 14.0726 11.7743 14.2461 11.0293 14.2461C10.5232 14.2461 10.0936 14.1569 9.74023 13.9785C9.38679 13.7911 9.09959 13.5456 8.87988 13.2422C8.66024 12.9388 8.49764 12.5994 8.39258 12.2246C8.29711 11.841 8.25 11.4484 8.25 11.0469C8.25 10.6276 8.29713 10.2216 8.39258 9.8291C8.49766 9.43642 8.66017 9.08762 8.87988 8.78418C9.09958 8.47187 9.38683 8.22633 9.74023 8.04785C10.0936 7.86061 10.5233 7.76662 11.0293 7.7666C11.5737 7.7666 12.0369 7.90126 12.4189 8.16895C12.801 8.43662 13.0596 8.83775 13.1934 9.37305H15.3428C15.2854 8.82881 15.127 8.34709 14.8691 7.92773C14.6112 7.50835 14.282 7.15567 13.8809 6.87012C13.4892 6.58453 13.0446 6.37033 12.5479 6.22754C12.0608 6.0759 11.5545 6 11.0293 6ZM21.25 6C20.5102 6 19.8425 6.12986 19.2471 6.38867C18.6608 6.64743 18.1647 7.004 17.7588 7.45898C17.3529 7.91407 17.0417 8.44975 16.8252 9.06543C16.6087 9.6723 16.5 10.3329 16.5 11.0469C16.5 11.7429 16.6087 12.3942 16.8252 13.001C17.0417 13.5989 17.3528 14.1212 17.7588 14.5674C18.1647 15.0136 18.6607 15.3662 19.2471 15.625C19.8425 15.8749 20.5102 16 21.25 16C21.9988 16 22.6665 15.8749 23.2529 15.625C23.8393 15.3662 24.3353 15.0136 24.7412 14.5674C25.1472 14.1212 25.4583 13.5989 25.6748 13.001C25.8913 12.3942 26 11.7429 26 11.0469C26 10.3329 25.8913 9.6723 25.6748 9.06543C25.4583 8.44975 25.1471 7.91407 24.7412 7.45898C24.3353 7.004 23.8392 6.64743 23.2529 6.38867C22.6665 6.12986 21.9988 6 21.25 6ZM21.25 7.7666C21.728 7.7666 22.134 7.86054 22.4678 8.04785C22.8016 8.22634 23.0728 8.47184 23.2803 8.78418C23.4878 9.08762 23.6363 9.43642 23.7266 9.8291C23.8257 10.2216 23.875 10.6276 23.875 11.0469C23.875 11.4484 23.8258 11.841 23.7266 12.2246C23.6364 12.5993 23.4877 12.9388 23.2803 13.2422C23.0728 13.5456 22.8016 13.7911 22.4678 13.9785C22.134 14.157 21.7281 14.2461 21.25 14.2461C20.7719 14.2461 20.366 14.157 20.0322 13.9785C19.6984 13.7911 19.4272 13.5456 19.2197 13.2422C19.0123 12.9388 18.859 12.5993 18.7598 12.2246C18.6696 11.841 18.625 11.4484 18.625 11.0469C18.625 10.6276 18.6696 10.2216 18.7598 9.8291C18.859 9.43642 19.0122 9.08762 19.2197 8.78418C19.4272 8.47184 19.6984 8.22634 20.0322 8.04785C20.366 7.86054 20.772 7.7666 21.25 7.7666Z" fill="white"/>
</svg>
